<svg width="112" height="112" viewBox="0 0 112 112" fill="none" xmlns="http://www.w3.org/2000/svg">
<circle cx="56" cy="56" r="56" fill="#808080" fill-opacity="0.19"/>
<path d="M56 22C37.2526 22 22 37.2526 22 56C22 74.7474 37.2526 90 56 90C74.7474 90 90 74.7474 90 56C90 37.2526 74.7474 22 56 22ZM48.1538 42.9231C48.1599 40.844 48.9885 38.8518 50.4586 37.3817C51.9287 35.9115 53.9209 35.083 56 35.0769C58.0791 35.083 60.0713 35.9115 61.5414 37.3817C63.0115 38.8518 63.8401 40.844 63.8462 42.9231V53.3846C63.8401 55.4637 63.0115 57.4559 61.5414 58.926C60.0713 60.3961 58.0791 61.2247 56 61.2308C53.9209 61.2247 51.9287 60.3961 50.4586 58.926C48.9885 57.4559 48.1599 55.4637 48.1538 53.3846V42.9231ZM71.6923 54.7283C71.6923 58.5467 69.904 62.1838 66.6593 64.9708C64.3665 66.9388 61.5894 68.2582 58.6154 68.7925V71.6923H61.2308C61.9244 71.6923 62.5896 71.9679 63.0801 72.4583C63.5706 72.9488 63.8462 73.6141 63.8462 74.3077C63.8462 75.0013 63.5706 75.6666 63.0801 76.1571C62.5896 76.6475 61.9244 76.9231 61.2308 76.9231H50.7692C50.0756 76.9231 49.4104 76.6475 48.9199 76.1571C48.4294 75.6666 48.1538 75.0013 48.1538 74.3077C48.1538 73.6141 48.4294 72.9488 48.9199 72.4583C49.4104 71.9679 50.0756 71.6923 50.7692 71.6923H53.3846V68.7925C50.4106 68.2582 47.6335 66.9388 45.3407 64.9708C42.096 62.1838 40.3077 58.5467 40.3077 54.7283V50.8183C40.3077 50.1246 40.5832 49.4594 41.0737 48.9689C41.5642 48.4784 42.2294 48.2029 42.9231 48.2029C43.6167 48.2029 44.282 48.4784 44.7724 48.9689C45.2629 49.4594 45.5385 50.1246 45.5385 50.8183V54.7283C45.5385 58.9227 50.1154 63.7971 56 63.7971C60.8385 63.7971 66.4615 59.8364 66.4615 54.7283V50.8183C66.4615 50.1246 66.7371 49.4594 67.2276 48.9689C67.718 48.4784 68.3833 48.2029 69.0769 48.2029C69.7706 48.2029 70.4358 48.4784 70.9263 48.9689C71.4168 49.4594 71.6923 50.1246 71.6923 50.8183V54.7283Z" fill="#CE0000"/>
</svg>
