<svg width="20" height="15" viewBox="0 0 20 15" fill="none" xmlns="http://www.w3.org/2000/svg">
<path d="M8.41221 10.9425L12.9037 7.21211C12.9338 7.18692 12.958 7.15489 12.9747 7.11841C12.9913 7.08193 13 7.04194 13 7.00143C13 6.96092 12.9913 6.92093 12.9747 6.88445C12.958 6.84797 12.9338 6.81594 12.9037 6.79075L8.41221 3.058C8.24552 2.91993 8 3.04372 8 3.2675V10.7306C8 10.9544 8.24552 11.0805 8.41221 10.9425Z" fill="#FF0C0C"/>
<path d="M19.2 0H10H0.8C0.3575 0 0 0.268125 0 0.6V14.4C0 14.7319 0.3575 15 0.8 15H19.2C19.6425 15 20 14.7319 20 14.4V0.6C20 0.268125 19.6425 0 19.2 0ZM18.2 13.65H1.8V1.35H10H18.2V13.65Z" fill="#808080"/>
</svg>
