<svg width="23" height="20" viewBox="0 0 23 20" fill="none" xmlns="http://www.w3.org/2000/svg">
<path d="M5.00594 4.33399C5.11011 4.24609 5.25016 4.19776 5.3953 4.19964C5.54044 4.20151 5.67878 4.25344 5.77989 4.34399C5.89045 4.44425 5.95112 4.57836 5.94875 4.71725C5.94638 4.85614 5.88117 4.98863 5.76724 5.08599C4.28014 6.39436 3.44733 8.16043 3.44999 9.99999C3.44999 11.99 4.40449 13.786 5.93859 15.06C5.99783 15.1076 6.04557 15.165 6.07902 15.2288C6.11247 15.2926 6.13097 15.3616 6.13343 15.4317C6.1359 15.5018 6.12227 15.5716 6.09336 15.6371C6.06445 15.7025 6.02083 15.7623 5.96504 15.813C5.86612 15.9019 5.73123 15.9537 5.58906 15.9574C5.4469 15.9611 5.30866 15.9165 5.20374 15.833C4.2859 15.0857 3.55452 14.1822 3.055 13.1788C2.55549 12.1754 2.2985 11.0934 2.29999 9.99999C2.29999 7.78599 3.33499 5.78199 5.00594 4.33399Z" fill="#808080"/>
<path d="M17.2327 5.08598C17.119 4.98848 17.054 4.85593 17.0518 4.71704C17.0497 4.57815 17.1105 4.44411 17.2212 4.34398C17.3223 4.25373 17.4604 4.202 17.6053 4.20013C17.7501 4.19825 17.8899 4.24639 17.994 4.33398C18.8529 5.0763 19.5342 5.95918 19.9987 6.93166C20.4631 7.90414 20.7015 8.94698 20.7 9.99998C20.7 12.3 19.5845 14.374 17.7962 15.833C17.6913 15.9165 17.5531 15.9611 17.4109 15.9574C17.2688 15.9537 17.1339 15.9018 17.0349 15.813C16.9793 15.7624 16.9359 15.7026 16.9071 15.6372C16.8782 15.5719 16.8647 15.5021 16.8671 15.4322C16.8696 15.3622 16.888 15.2933 16.9214 15.2296C16.9547 15.1659 17.0023 15.1086 17.0614 15.061C17.849 14.4081 18.4758 13.6228 18.9036 12.7528C19.3314 11.8828 19.5513 10.9462 19.55 9.99998C19.55 8.08398 18.6656 6.34998 17.2327 5.08498V5.08598Z" fill="#808080"/>
<path d="M7.05179 6.09004C7.15427 6.00517 7.29132 5.95917 7.4328 5.96217C7.57428 5.96517 7.70859 6.01692 7.80619 6.10604C8.04539 6.31404 8.02124 6.65604 7.78549 6.86604C6.84706 7.70499 6.32293 8.82968 6.32499 10C6.32499 11.29 6.94944 12.454 7.95109 13.275C8.20409 13.482 8.23859 13.836 7.99134 14.051C7.89657 14.1367 7.76752 14.1874 7.63093 14.1926C7.49434 14.1978 7.36068 14.1572 7.25764 14.079C6.60117 13.564 6.07654 12.9347 5.71775 12.232C5.35897 11.5293 5.17405 10.7689 5.17499 10C5.17499 8.47004 5.89259 7.08704 7.05179 6.09004Z" fill="#808080"/>
<path d="M15.2145 6.86604C14.9788 6.65604 14.9546 6.31404 15.1938 6.10604C15.2914 6.01692 15.4257 5.96517 15.5672 5.96217C15.7087 5.95917 15.8457 6.00517 15.9482 6.09004C16.5437 6.60093 17.0163 7.20975 17.3385 7.88103C17.6607 8.55231 17.8261 9.27263 17.825 10C17.8263 10.769 17.6416 11.5296 17.283 12.2324C16.9244 12.9353 16.3999 13.5648 15.7435 14.08C15.64 14.1585 15.5057 14.1992 15.3686 14.1936C15.2314 14.188 15.1021 14.1366 15.0075 14.05C14.7614 13.836 14.7959 13.482 15.0489 13.275C15.5631 12.8548 15.9726 12.3474 16.2523 11.7841C16.532 11.2208 16.6759 10.6136 16.675 10C16.6771 8.82968 16.1529 7.70499 15.2145 6.86604Z" fill="#808080"/>
<path d="M11.5 8C10.89 8 10.305 8.21071 9.87364 8.58579C9.4423 8.96086 9.19998 9.46957 9.19998 10C9.19998 10.5304 9.4423 11.0391 9.87364 11.4142C10.305 11.7893 10.89 12 11.5 12C12.11 12 12.695 11.7893 13.1263 11.4142C13.5577 11.0391 13.8 10.5304 13.8 10C13.8 9.46957 13.5577 8.96086 13.1263 8.58579C12.695 8.21071 12.11 8 11.5 8Z" fill="#F70707"/>
</svg>
