<svg width="24" height="25" viewBox="0 0 24 25" fill="none" xmlns="http://www.w3.org/2000/svg">
<path d="M21 5.5H3C2.46957 5.5 1.96086 5.71071 1.58579 6.08579C1.21071 6.46086 1 6.96957 1 7.5V17.5C1 18.0304 1.21071 18.5391 1.58579 18.9142C1.96086 19.2893 2.46957 19.5 3 19.5H21C21.5304 19.5 22.0391 19.2893 22.4142 18.9142C22.7893 18.5391 23 18.0304 23 17.5V7.5C23 6.96957 22.7893 6.46086 22.4142 6.08579C22.0391 5.71071 21.5304 5.5 21 5.5ZM13 7.5H15V9.5H13V7.5ZM13 11.5H15V13.5H13V11.5ZM9 7.5H11V9.5H9V7.5ZM9 11.5H11V13.5H9V11.5ZM5 7.5H7V9.5H5V7.5ZM5 11.5H7V13.5H5V11.5ZM17 17.5H7V15.5H17V17.5ZM19 13.5H17V11.5H19V13.5ZM19 9.5H17V7.5H19V9.5Z" fill="#808080"/>
</svg>
