<svg width="24" height="25" viewBox="0 0 24 25" fill="none" xmlns="http://www.w3.org/2000/svg">
<path d="M12 1.5L3 5.5V11.5C3 17.05 6.84 22.24 12 23.5C17.16 22.24 21 17.05 21 11.5V5.5L12 1.5ZM12 5.5C12.7956 5.5 13.5587 5.81607 14.1213 6.37868C14.6839 6.94129 15 7.70435 15 8.5C15 9.29565 14.6839 10.0587 14.1213 10.6213C13.5587 11.1839 12.7956 11.5 12 11.5C11.2044 11.5 10.4413 11.1839 9.87868 10.6213C9.31607 10.0587 9 9.29565 9 8.5C9 7.70435 9.31607 6.94129 9.87868 6.37868C10.4413 5.81607 11.2044 5.5 12 5.5ZM17.13 17.5C15.9184 19.3547 14.1078 20.7382 12 21.42C9.89217 20.7382 8.08162 19.3547 6.87 17.5C6.53 17 6.24 16.5 6 15.97C6 14.32 8.71 12.97 12 12.97C15.29 12.97 18 14.29 18 15.97C17.76 16.5 17.47 17 17.13 17.5Z" fill="#808080"/>
</svg>
