<svg width="116" height="28" viewBox="0 0 116 28" fill="none" xmlns="http://www.w3.org/2000/svg">
<path d="M28.105 10.0913C27.7763 8.85846 26.8037 7.88585 25.5662 7.55252C23.3288 6.95435 14.3516 6.95435 14.3516 6.95435C14.3516 6.95435 5.379 6.95435 3.13699 7.55252C1.90411 7.88129 0.931508 8.85389 0.598174 10.0913C0 12.3288 0 17 0 17C0 17 0 21.6713 0.598174 23.9087C0.926941 25.1416 1.89954 26.1142 3.13699 26.4475C5.379 27.0457 14.3516 27.0457 14.3516 27.0457C14.3516 27.0457 23.3288 27.0457 25.5662 26.4475C26.7991 26.1187 27.7717 25.1461 28.105 23.9087C28.7032 21.6713 28.7032 17 28.7032 17C28.7032 17 28.7032 12.3288 28.105 10.0913Z" fill="#FF0000"/>
<path d="M11.484 21.306L18.9406 17L11.484 12.6941V21.306Z" fill="white"/>
<path d="M41.662 25.233C41.0958 24.8495 40.6894 24.2558 40.452 23.4476C40.2145 22.6394 40.0912 21.5663 40.0912 20.2239V18.3974C40.0912 17.0412 40.2282 15.9545 40.5022 15.1326C40.7762 14.3106 41.2054 13.7125 41.7853 13.338C42.3652 12.9636 43.1278 12.7718 44.073 12.7718C45.0045 12.7718 45.7488 12.9636 46.3104 13.3472C46.8721 13.7307 47.283 14.3289 47.5433 15.1417C47.8036 15.9545 47.9314 17.0412 47.9314 18.3928V20.2193C47.9314 21.5618 47.8036 22.6394 47.5524 23.4522C47.3013 24.265 46.8903 24.8632 46.3196 25.2376C45.7534 25.612 44.9817 25.8038 44.0091 25.8038C43.0136 25.8084 42.2282 25.6166 41.662 25.233ZM44.8447 23.2604C44.9999 22.8495 45.0821 22.1782 45.0821 21.2513V17.3289C45.0821 16.4248 45.0045 15.7673 44.8447 15.3472C44.6894 14.9316 44.4109 14.7216 44.0136 14.7216C43.6301 14.7216 43.3607 14.9316 43.2008 15.3472C43.0456 15.7627 42.9634 16.4248 42.9634 17.3289V21.2513C42.9634 22.1828 43.0365 22.854 43.1871 23.2604C43.3378 23.6714 43.6118 23.8769 44.0091 23.8769C44.4109 23.8769 44.6849 23.6714 44.8447 23.2604Z" fill="#282828"/>
<path d="M85.2557 20.2558V20.8905C85.2557 21.6987 85.2785 22.3014 85.3287 22.7078C85.3744 23.1096 85.4749 23.4064 85.6255 23.5891C85.7762 23.7717 86.0091 23.8676 86.3242 23.8676C86.7488 23.8676 87.0411 23.7032 87.1963 23.3745C87.3516 23.0457 87.4383 22.4978 87.452 21.7306L89.8949 21.8722C89.9086 21.9818 89.9132 22.1325 89.9132 22.3242C89.9132 23.4886 89.5936 24.3562 88.9589 24.9316C88.3242 25.5069 87.4246 25.7946 86.2602 25.7946C84.863 25.7946 83.8858 25.3562 83.3242 24.4795C82.7625 23.6028 82.484 22.2512 82.484 20.4156V18.2192C82.484 16.3288 82.7762 14.9544 83.3561 14.0822C83.936 13.2147 84.9315 12.7809 86.3424 12.7809C87.315 12.7809 88.0593 12.9589 88.5799 13.3151C89.1004 13.6713 89.4657 14.2238 89.6803 14.9772C89.8904 15.7306 90 16.7717 90 18.0959V20.2512H85.2557V20.2558ZM85.6164 14.9589C85.4748 15.137 85.379 15.4293 85.3287 15.8311C85.2785 16.2329 85.2557 16.8494 85.2557 17.6667V18.5708H87.3287V17.6667C87.3287 16.8585 87.3013 16.2466 87.2465 15.8311C87.1917 15.4156 87.0913 15.1188 86.9497 14.9498C86.8082 14.7809 86.5844 14.6941 86.2831 14.6941C85.9817 14.6895 85.758 14.7809 85.6164 14.9589Z" fill="#282828"/>
<path d="M34.767 20.0184L31.5433 8.37911H34.3561L35.4839 13.6531C35.7716 14.9545 35.9816 16.0595 36.1186 16.9773H36.2008C36.2967 16.3198 36.5068 15.2193 36.8355 13.6713L38.0045 8.37454H40.8173L37.557 20.0184V25.6029H34.767V20.0184Z" fill="#282828"/>
<path d="M57.0776 13.0183V25.5982H54.863L54.6164 24.0594H54.5571C53.9543 25.2238 53.0502 25.8037 51.8493 25.8037C51.0137 25.8037 50.3972 25.5297 50 24.9818C49.6027 24.4338 49.4064 23.58 49.4064 22.4156V13.0183H52.2374V22.2558C52.2374 22.8174 52.2968 23.2192 52.4201 23.4567C52.5434 23.6941 52.7488 23.8174 53.0365 23.8174C53.2831 23.8174 53.5205 23.7443 53.7443 23.5937C53.968 23.443 54.137 23.2512 54.2466 23.0183V13.0183H57.0776Z" fill="#282828"/>
<path d="M71.6073 13.0183V25.5982H69.3926L69.1461 24.0594H69.0867C68.484 25.2238 67.5799 25.8037 66.3789 25.8037C65.5433 25.8037 64.9269 25.5297 64.5296 24.9818C64.1324 24.4338 63.936 23.58 63.936 22.4156V13.0183H66.7671V22.2558C66.7671 22.8174 66.8264 23.2192 66.9497 23.4567C67.073 23.6941 67.2785 23.8174 67.5662 23.8174C67.8127 23.8174 68.0502 23.7443 68.2739 23.5937C68.4977 23.443 68.6666 23.2512 68.7762 23.0183V13.0183H71.6073Z" fill="#282828"/>
<path d="M64.7762 10.6577H61.9635V25.5983H59.1918V10.6577H56.379V8.37914H64.7717V10.6577H64.7762Z" fill="#282828"/>
<path d="M80.9817 15.0321C80.8082 14.2375 80.5342 13.6622 80.1506 13.306C79.7671 12.9499 79.242 12.7718 78.5707 12.7718C78.0502 12.7718 77.5662 12.9179 77.1141 13.2147C76.662 13.5069 76.315 13.8951 76.0684 14.3745H76.0456V7.74438H73.315V25.6028H75.6529L75.9406 24.4111H75.9999C76.2191 24.8357 76.5479 25.1691 76.9862 25.4156C77.4246 25.6622 77.9086 25.7855 78.4429 25.7855C79.4018 25.7855 80.105 25.3426 80.557 24.4613C81.0091 23.58 81.2328 22.201 81.2328 20.3243V18.3334C81.2374 16.927 81.1506 15.8266 80.9817 15.0321ZM78.3835 20.1645C78.3835 21.0823 78.347 21.7992 78.2693 22.3197C78.1963 22.8403 78.0684 23.2102 77.8904 23.4293C77.7123 23.6485 77.4748 23.7581 77.1735 23.7581C76.9406 23.7581 76.726 23.7033 76.5251 23.5937C76.3287 23.4841 76.1643 23.3197 76.041 23.1006V15.9544C76.1369 15.612 76.3013 15.3334 76.5342 15.1143C76.7671 14.8951 77.0182 14.7855 77.2922 14.7855C77.5798 14.7855 77.8036 14.8996 77.9588 15.1234C78.1141 15.3471 78.2237 15.7307 78.2876 16.2604C78.347 16.7946 78.3789 17.5526 78.3789 18.5389V20.1645H78.3835Z" fill="#282828"/>
<path d="M97.4316 12H95.9551V3.46875H97.4316V12ZM106.021 12H104.539L100.736 5.94727V12H99.2539V3.46875H100.736L104.551 9.54492V3.46875H106.021V12Z" fill="#808080"/>
</svg>
